<svg xmlns="http://www.w3.org/2000/svg" width="13.726" height="24" viewBox="0 0 13.726 24">
  <path id="Icon" d="M683.231,576.669v-5.333a7.117,7.117,0,0,1,3.136,1.363,1.118,1.118,0,0,0,.621.2,1.3,1.3,0,0,0,1.3-1.287,1.159,1.159,0,0,0-.333-.818,8,8,0,0,0-4.742-1.909v-1.788a.924.924,0,0,0-.924-.924.181.181,0,0,0-.032,0,.939.939,0,0,0-.953.926v1.727c-3.409.243-5.727,2.348-5.727,5.151,0,3.439,2.924,4.394,5.727,5.151v6.06a7.863,7.863,0,0,1-4.015-1.773,1.261,1.261,0,0,0-.757-.272,1.318,1.318,0,0,0-1.228,1.333,1.16,1.16,0,0,0,.334.818,8.928,8.928,0,0,0,5.681,2.288v1.7a.938.938,0,0,0,.984.892.924.924,0,0,0,.924-.924v-1.7c4.136-.272,5.8-2.787,5.8-5.454C689.033,578.517,686.034,577.426,683.231,576.669Zm-1.909-.485c-1.651-.485-2.939-.985-2.939-2.394s1.166-2.424,2.939-2.56Zm1.909,9.029V579.7c1.712.484,3.045,1.136,3.03,2.727C686.261,583.577,685.473,584.94,683.231,585.213Z" transform="translate(-675.307 -566.168)" fill="#00a30d"/>
</svg>
