<svg xmlns="http://www.w3.org/2000/svg" width="24" height="24" viewBox="0 0 24 24">
  <path id="Icon" d="M663.982,567.225h-2.156V566.1a.75.75,0,0,0-1.5,0v1.125h-10.5V566.1a.75.75,0,0,0-1.5,0v1.125H646.17a3.1,3.1,0,0,0-3.094,3.094v15.938a3.1,3.1,0,0,0,3.094,3.093h17.812a3.1,3.1,0,0,0,3.094-3.093V570.319A3.1,3.1,0,0,0,663.982,567.225Zm1.594,19.032a1.594,1.594,0,0,1-1.594,1.593H646.17a1.593,1.593,0,0,1-1.594-1.593V573.835a.235.235,0,0,1,.234-.235h20.531a.235.235,0,0,1,.235.235Z" transform="translate(-643.076 -565.35)" fill="#c90000"/>
</svg>
