<svg xmlns="http://www.w3.org/2000/svg" width="24" height="24" viewBox="0 0 24 24">
  <g id="Icon" transform="translate(-699.076 -565.35)">
    <path id="Path_247" data-name="Path 247" d="M711.076,565.35a12,12,0,1,0,12,12A12.014,12.014,0,0,0,711.076,565.35Zm0,22.5a10.5,10.5,0,1,1,10.5-10.5,10.512,10.512,0,0,1-10.5,10.5Z" fill="#00b2d3"/>
    <path id="Path_248" data-name="Path 248" d="M711.076,569.85h0a.75.75,0,0,0-.75.75v7.061l4.189,4.189a.75.75,0,0,0,1.061,0h0a.749.749,0,0,0,0-1.06l-3.75-3.75V570.6A.75.75,0,0,0,711.076,569.85Z" fill="#00b2d3"/>
  </g>
</svg>
